<svg width="42" height="42" viewBox="0 0 42 42" fill="none" xmlns="http://www.w3.org/2000/svg">
<rect x="0.5" y="0.5" width="41" height="41" rx="20.5" fill="#222222" stroke="black"/>
<path d="M21.483 35.2772L30.8104 23.4971C30.9614 23.3063 30.8255 23.0254 30.5822 23.0254H11.2916C11.0438 23.0254 10.9094 23.3151 11.0694 23.5043L21.0327 35.2845C21.1514 35.4249 21.3689 35.4214 21.483 35.2772Z" fill="black" stroke="#FAFAFA"/>
<path d="M30.6929 22.4816L21.2329 17.9751C21.0682 17.8965 20.8762 17.8999 20.7143 17.9839L11.3992 22.8222C10.9933 23.033 10.978 23.6081 11.3722 23.8402L20.6702 29.3133C20.8556 29.4225 21.086 29.4204 21.2694 29.3081L30.7466 23.5034C31.1404 23.2622 31.1099 22.6803 30.6929 22.4816Z" fill="black" stroke="#FAFAFA"/>
<path d="M21.483 24.3587L30.8104 12.5786C30.9614 12.3878 30.8255 12.1069 30.5822 12.1069H11.2916C11.0438 12.1069 10.9094 12.3967 11.0694 12.5859L21.0327 24.3661C21.1514 24.5065 21.3689 24.5029 21.483 24.3587Z" fill="black" stroke="#FAFAFA"/>
<path d="M30.6929 11.5632L21.2329 7.05658C21.0682 6.97811 20.8762 6.98142 20.7143 7.06551L11.3992 11.9037C10.9933 12.1145 10.978 12.6897 11.3722 12.9217L20.6702 18.3949C20.8556 18.504 21.086 18.502 21.2694 18.3897L30.7466 12.5849C31.1404 12.3437 31.1099 11.7618 30.6929 11.5632Z" fill="black" stroke="#FAFAFA"/>
</svg>
