<svg xmlns="http://www.w3.org/2000/svg" width="21" height="20" fill="none" viewBox="0 0 21 20"><path fill="#fff" fill-rule="evenodd" d="M19.474 14C19.9928 14 20.4204 14.386 20.4788 14.8834L20.4856 15V17C20.4856 18.5977 19.2222 19.9037 17.6292 19.9949L17.4509 20H3.28908C1.67293 20 0.351847 18.7511 0.259546 17.1763L0.254395 17V15C0.254395 14.4477 0.707286 14 1.26596 14C1.78472 14 2.21228 14.386 2.27071 14.8834L2.27752 15V17C2.27752 17.5128 2.66802 17.9355 3.17111 17.9933L3.28908 18H17.4509C17.9697 18 18.3972 17.614 18.4557 17.1166L18.4625 17V15C18.4625 14.4477 18.9154 14 19.474 14ZM10.37 0C10.9287 0 11.3816 0.447715 11.3816 1V10.585L12.6894 9.29289C13.0541 8.93241 13.6278 8.90468 14.0247 9.2097L14.12 9.29289C14.4846 9.65338 14.5127 10.2206 14.2041 10.6129L14.12 10.7071L11.0853 13.7071L11.0408 13.7485L10.9722 13.8037L10.8597 13.8753L10.7456 13.9288L10.6391 13.9642L10.4888 13.9932L10.37 14L10.2939 13.9972L10.167 13.9798L10.0542 13.9503L9.94189 13.9063L9.84327 13.854L9.74612 13.7872C9.71404 13.7623 9.68351 13.7356 9.65472 13.7071L6.62004 10.7071C6.225 10.3166 6.225 9.68342 6.62004 9.29289C6.98469 8.93241 7.55848 8.90468 7.9553 9.2097L8.0506 9.29289L9.35844 10.585V1C9.35844 0.447715 9.81133 0 10.37 0Z" clip-rule="evenodd"/></svg>