<svg xmlns="http://www.w3.org/2000/svg" width="134" height="134" fill="none" viewBox="0 0 134 134"><path fill="#4A7AFF" d="M134 67C134 104.004 104.004 134 67 134C29.9964 134 0 104.004 0 67C0 29.9964 29.9964 0 67 0C104.004 0 134 29.9964 134 67Z"/><path fill="#0053BF" d="M69.9402 133.932C105.579 132.393 134 103.017 134 67C134 66.7393 133.993 66.4796 133.99 66.2189L87.4825 19.7107L37.756 71.6864L65.3847 99.3151L52.6453 116.637L69.9402 133.932Z"/><path fill="#fff" d="M87.4826 19.7107V34.8822C87.4826 34.8822 70.064 32.3539 70.064 43.5915V54.829H85.7968L83.8308 71.9665H70.064V116.637H52.6454V71.9665L37.755 71.6854V54.829H52.3642V41.9057C52.3642 41.9057 51.4002 22.6806 70.3451 19.1494C78.212 17.6824 87.4826 19.7107 87.4826 19.7107Z"/><path fill="#DCE1EB" d="M87.4826 34.8822V19.7107C87.4826 19.7107 78.212 17.6824 70.3451 19.1494C69.1163 19.3784 67.9733 19.6749 66.907 20.0256V116.637H70.064V71.9665H83.8298L85.7967 54.829H70.064C70.064 54.829 70.064 54.829 70.064 43.5915C70.064 32.3539 87.4826 34.8822 87.4826 34.8822Z"/></svg>