<svg xmlns="http://www.w3.org/2000/svg" width="134" height="134" fill="none" viewBox="0 0 134 134"><path fill="#6C27B3" d="M67 134C104.003 134 134 104.003 134 67C134 29.9969 104.003 0 67 0C29.9969 0 0 29.9969 0 67C0 104.003 29.9969 134 67 134Z"/><path fill="#501A96" d="M98.0687 34.7882C90.0635 35.8016 81.7167 35.7662 73.3166 34.9664C61.5859 34.064 44.4412 28.6498 38.1246 39.4782C27.9772 56.8134 32.9821 79.0069 35.3467 98.647L70.6099 133.903C104.735 132.091 132.084 104.745 133.902 70.6217L98.0687 34.7882Z"/><path fill="#fff" d="M82.5008 28.6499H51.4989C38.8997 28.6499 28.6498 38.8999 28.6498 51.499V82.5009C28.6498 95.0995 38.8997 105.35 51.4991 105.35H82.501C95.0996 105.35 105.35 95.1 105.35 82.5009V51.499C105.35 38.8999 95.0999 28.6499 82.5008 28.6499ZM97.6341 82.5012C97.6341 90.8589 90.8588 97.6342 82.501 97.6342H51.4991C43.1414 97.6342 36.366 90.8589 36.366 82.5012V51.4993C36.366 43.1415 43.1414 36.3659 51.4991 36.3659H82.501C90.8588 36.3659 97.6341 43.1418 97.6341 51.4993V82.5012Z"/><path fill="#fff" d="M67 47.1624C56.0617 47.1624 47.1622 56.0618 47.1622 67.0001C47.1622 77.9376 56.0617 86.8371 67 86.8371C77.9383 86.8371 86.837 77.9384 86.837 67.0001C86.837 56.0618 77.9383 47.1624 67 47.1624ZM67 79.1211C60.3055 79.1211 54.8782 73.6949 54.8782 67.0001C54.8782 60.3053 60.3055 54.8783 67 54.8783C73.6945 54.8783 79.121 60.3051 79.121 67.0001C79.121 73.6946 73.6945 79.1211 67 79.1211Z"/><path fill="#D1D1D1" d="M91.6284 47.312C91.6284 49.937 89.5001 52.0655 86.8748 52.0655C84.2498 52.0655 82.1212 49.937 82.1212 47.312C82.1212 44.6866 84.2498 42.5583 86.8748 42.5583C89.5006 42.5583 91.6284 44.6861 91.6284 47.312Z"/><path fill="#D1D1D1" d="M82.501 28.6499H66.8497V36.3659H82.501C90.8588 36.3659 97.6341 43.1418 97.6341 51.4993V82.5012C97.6341 90.8589 90.8588 97.6342 82.501 97.6342H66.8497V105.35H82.501C95.0997 105.35 105.35 95.1 105.35 82.5009V51.499C105.35 38.8999 95.0999 28.6499 82.501 28.6499Z"/><path fill="#D1D1D1" d="M67 47.1624C66.9494 47.1624 66.9002 47.166 66.8497 47.166V54.882C66.8997 54.8815 66.9494 54.8783 67 54.8783C73.6945 54.8783 79.1209 60.3051 79.1209 67.0001C79.1209 73.6946 73.6947 79.1211 67 79.1211C66.9494 79.1211 66.8997 79.118 66.8497 79.1174V86.8334C66.9002 86.8339 66.9494 86.8371 67 86.8371C77.9382 86.8371 86.8369 77.9381 86.8369 67.0001C86.8369 56.0618 77.9382 47.1624 67 47.1624Z"/></svg>