<svg xmlns="http://www.w3.org/2000/svg" width="42" height="30" fill="none" viewBox="0 0 42 30"><path fill="#000" fill-rule="evenodd" d="M39.75 25.4166C40.9006 25.4166 41.8334 26.3494 41.8334 27.5C41.8334 28.6506 40.9006 29.5833 39.75 29.5833H2.25002C1.09943 29.5833 0.166687 28.6506 0.166687 27.5C0.166687 26.3494 1.09943 25.4166 2.25002 25.4166H39.75ZM39.75 12.9166C40.9006 12.9166 41.8334 13.8494 41.8334 15C41.8334 16.1506 40.9006 17.0833 39.75 17.0833H2.25002C1.09943 17.0833 0.166687 16.1506 0.166687 15C0.166687 13.8494 1.09943 12.9166 2.25002 12.9166H39.75ZM39.75 0.416626C40.9006 0.416626 41.8334 1.34937 41.8334 2.49996C41.8334 3.65055 40.9006 4.58329 39.75 4.58329H2.25002C1.09943 4.58329 0.166687 3.65055 0.166687 2.49996C0.166687 1.34937 1.09943 0.416626 2.25002 0.416626H39.75Z" clip-rule="evenodd"/></svg>