<svg xmlns="http://www.w3.org/2000/svg" width="133" height="134" fill="none" viewBox="0 0 133 134"><g clip-path="url(#clip0)"><path fill="#41B4E6" d="M66.4992 133.999C103.226 133.999 132.998 104.003 132.998 67.0002C132.998 29.9975 103.226 0.000976562 66.4992 0.000976562C29.7727 0.000976562 0 29.9975 0 67.0002C0 104.003 29.7727 133.999 66.4992 133.999Z"/><path fill="#0091C8" d="M133 67.0008C133 65.3682 132.939 63.7505 132.825 62.147L105.264 34.3794L27.7357 65.1049L57.3986 94.9911L57.7877 96.4023L58.2914 95.8906L58.2935 95.8927L57.7877 96.4023L90.6006 129.462C115.413 119.736 133 95.4392 133 67.0008Z"/><path fill="#fff" d="M60.0417 76.7621L90.0943 99.6225L105.264 34.3794L27.7355 65.1049L51.3266 72.9777L94.3809 43.8808L60.0417 76.7621Z"/><path fill="#D2D2D7" d="M51.3267 72.9777L57.7878 96.4026L60.0418 76.7621L94.381 43.8809L51.3267 72.9777Z"/><path fill="#B9B9BE" d="M69.8089 84.1919L57.7877 96.4026L60.0417 76.7622L69.8089 84.1919Z"/></g><defs><clipPath id="clip0"><rect width="133" height="134" fill="#fff"/></clipPath></defs></svg>