<svg xmlns="http://www.w3.org/2000/svg" width="134" height="134" fill="none" viewBox="0 0 134 134"><g clip-path="url(#clip0)"><path fill="#4A7AFF" d="M134 67C134 104.004 104.004 134 67 134C29.9964 134 0 104.004 0 67C0 29.9964 29.9964 0 67 0C104.004 0 134 29.9964 134 67Z"/><path fill="#4A7AFF" d="M134 67C134 104.004 104.004 134 67 134C29.9964 134 0 104.004 0 67C0 29.9964 29.9964 0 67 0C104.004 0 134 29.9964 134 67Z"/><path fill="#0053BF" d="M134 67C134 62.9106 133.632 58.9082 132.931 55.0213L109.611 31.7007L74.1687 68.2616L30.1222 68.5703L45.2774 83.7265L38.3224 83.8093L48.8709 94.3578L44.3705 99.0002L21.8995 95.3413L60.2188 133.661C62.4486 133.884 64.711 134 67 134C104.004 134 134 104.004 134 67Z"/><path fill="#fff" d="M50.2673 103.654C84.3071 103.654 102.922 75.4528 102.922 50.9994C102.922 50.1979 102.906 49.4015 102.869 48.6082C106.482 45.9951 109.622 42.7359 112.1 39.0258C108.784 40.499 105.216 41.4917 101.472 41.9384C105.294 39.6484 108.227 36.0232 109.611 31.7018C106.034 33.8221 102.075 35.3628 97.8603 36.1939C94.4825 32.5973 89.6734 30.3472 84.3521 30.3472C74.1308 30.3472 65.8427 38.6353 65.8427 48.8515C65.8427 50.3042 66.0052 51.7161 66.3222 53.0717C50.9431 52.2978 37.3041 44.9329 28.1777 33.7362C26.5869 36.471 25.6719 39.6484 25.6719 43.0375C25.6719 49.4577 28.9393 55.1266 33.9069 58.4421C30.8715 58.349 28.0192 57.5138 25.5257 56.1265C25.5216 56.2042 25.5216 56.2819 25.5216 56.3626C25.5216 65.3265 31.901 72.809 40.368 74.5051C38.8141 74.9283 37.1783 75.1563 35.4894 75.1563C34.2974 75.1563 33.1381 75.0377 32.0104 74.823C34.3669 82.1746 41.1982 87.5256 49.2992 87.6769C42.9638 92.6403 34.9854 95.5979 26.315 95.5979C24.8224 95.5979 23.3492 95.5131 21.9005 95.3413C30.0905 100.59 39.815 103.654 50.2673 103.654Z"/><path fill="#DCE1EB" d="M112.1 39.0258C108.784 40.499 105.216 41.4907 101.472 41.9384C105.294 39.6484 108.227 36.0222 109.611 31.7018C106.034 33.8221 102.075 35.3628 97.8603 36.1929C94.4825 32.5973 89.6734 30.3472 84.3522 30.3472C76.3013 30.3472 69.4536 35.4895 66.907 42.6653V101.166C90.3226 93.7618 102.922 71.115 102.922 50.9994C102.922 50.1979 102.906 49.4015 102.869 48.6082C106.482 45.9951 109.622 42.7359 112.1 39.0258Z"/></g><defs><clipPath id="clip0"><rect width="134" height="134" fill="#fff"/></clipPath></defs></svg>