<svg width="512" height="512" viewBox="0 0 512 512" fill="none" xmlns="http://www.w3.org/2000/svg">
<path d="M71 460L30 0H481L440 460L255 512" fill="#E34F26"/>
<path d="M256 472L405 431L440 37H256" fill="#EF652A"/>
<path d="M256 208H181L176 150H256V94H255H114L115 109L129 265H256V208ZM256 355H255L192 338L188 293H158H132L139 382L255 414H256V355Z" fill="#EBEBEB"/>
<path d="M255 208V265H325L318 338L255 355V414L371 382L372 372L385 223L387 208H371H255ZM255 94V129V150H392L393 138L396 109L397 94H255Z" fill="white"/>
</svg>
