<svg width="543" height="332" viewBox="0 0 543 332" fill="none" xmlns="http://www.w3.org/2000/svg">
<path fill-rule="evenodd" clip-rule="evenodd" d="M271.5 0C199.1 0 153.85 36.2182 135.75 108.655C162.9 72.4364 194.575 58.8545 230.775 67.9091C251.429 73.0702 266.191 88.0705 282.531 104.66C309.148 131.693 339.958 162.982 407.25 162.982C479.65 162.982 524.9 126.764 543 54.3273C515.85 90.5455 484.175 104.127 447.975 95.0727C427.321 89.9116 412.559 74.9113 396.219 58.3213C369.602 31.2885 338.792 0 271.5 0ZM135.75 162.982C63.35 162.982 18.1 199.2 0 271.636C27.15 235.418 58.825 221.836 95.025 230.891C115.679 236.062 130.441 251.052 146.781 267.642C173.398 294.675 204.208 325.964 271.5 325.964C343.9 325.964 389.15 289.745 407.25 217.309C380.1 253.527 348.425 267.109 312.225 258.055C291.571 252.893 276.809 237.893 260.469 221.303C233.852 194.27 203.042 162.982 135.75 162.982Z" fill="#06B6D4"/>
</svg>
